<?xml version="1.0" encoding="UTF-8"?>
<svg width="213px" height="213px" viewBox="0 0 213 213" version="1.1" xmlns="http://www.w3.org/2000/svg" xmlns:xlink="http://www.w3.org/1999/xlink">
    <!-- Generator: Sketch 41.2 (35397) - http://www.bohemiancoding.com/sketch -->
    <title>Group 2</title>
    <desc>Created with Sketch.</desc>
    <defs>
        <circle id="path-1" cx="101.5" cy="101.5" r="101.5"></circle>
        <filter x="-50%" y="-50%" width="200%" height="200%" filterUnits="objectBoundingBox" id="filter-2">
            <feOffset dx="0" dy="0" in="SourceAlpha" result="shadowOffsetOuter1"></feOffset>
            <feGaussianBlur stdDeviation="2.5" in="shadowOffsetOuter1" result="shadowBlurOuter1"></feGaussianBlur>
            <feColorMatrix values="0 0 0 0 0   0 0 0 0 0   0 0 0 0 0  0 0 0 0.1 0" type="matrix" in="shadowBlurOuter1"></feColorMatrix>
        </filter>
    </defs>
    <g id="Design" stroke="none" stroke-width="1" fill="none" fill-rule="evenodd">
        <g id="Landing" transform="translate(-618.000000, -74.000000)">
            <g id="Group-2" transform="translate(623.000000, 79.000000)">
                <g id="Oval-5">
                    <use fill="black" fill-opacity="1" filter="url(#filter-2)" xlink:href="#path-1"></use>
                    <use fill="#F5D72A" fill-rule="evenodd" xlink:href="#path-1"></use>
                </g>
                <text id="Bartender" font-family="Reef-Bold, Reef" font-size="11" font-weight="bold" line-spacing="13" letter-spacing="5.17733383" fill="#000000">
                    <tspan x="63" y="134">Bartender</tspan>
                </text>
                <g id="cutlery" transform="translate(94.866013, 70.983660)" fill="#000000">
                    <g id="Capa_1">
                        <g id="Group">
                            <ellipse id="Oval" cx="3.27108403" cy="20.8577047" rx="0.595934419" ry="0.595934419"></ellipse>
                            <ellipse id="Oval" cx="3.27108403" cy="23.2414423" rx="0.595934419" ry="0.595934419"></ellipse>
                            <ellipse id="Oval" cx="11.6207212" cy="20.8577047" rx="0.595934419" ry="0.595934419"></ellipse>
                            <ellipse id="Oval" cx="11.6207212" cy="23.2414423" rx="0.595934419" ry="0.595934419"></ellipse>
                            <path d="M5.6548217,0 C5.32526997,0 5.05888728,0.266382685 5.05888728,0.595934419 L5.05888728,8.34308187 C5.05888728,9.11898848 4.55889831,9.77451634 3.86701844,10.0212332 L3.86701844,0.595934419 C3.86701844,0.266382685 3.60063576,0 3.27108403,0 C2.94153229,0 2.67514961,0.266382685 2.67514961,0.595934419 L2.67514961,10.0212332 C1.98326975,9.77451634 1.48328077,9.11898848 1.48328077,8.34308187 L1.48328077,0.595934419 C1.48328077,0.266382685 1.21689808,0 0.88734635,0 C0.557794616,0 0.291411931,0.266382685 0.291411931,0.595934419 L0.291411931,8.34308187 C0.291411931,9.78166755 1.31701507,10.9854551 2.67514961,11.2625646 L2.67514961,17.3667208 C1.65014241,17.6331035 0.88734635,18.5579937 0.88734635,19.6658358 L0.88734635,32.776393 C0.88734635,34.0910244 1.9564527,35.1601307 3.27108403,35.1601307 C4.58571535,35.1601307 5.6548217,34.0910244 5.6548217,32.776393 L5.6548217,19.6658358 C5.6548217,18.5579937 4.89202565,17.6331035 3.86701844,17.3667208 L3.86701844,11.2625646 C5.22515299,10.9854551 6.25075612,9.78226349 6.25075612,8.34308187 L6.25075612,0.595934419 C6.25075612,0.266382685 5.98437344,0 5.6548217,0 L5.6548217,0 Z M4.46295286,19.6658358 L4.46295286,32.776393 C4.46295286,33.4337087 3.92839969,33.9682619 3.27108403,33.9682619 C2.61376836,33.9682619 2.07921519,33.4337087 2.07921519,32.776393 L2.07921519,19.6658358 C2.07921519,19.0085202 2.61376836,18.473967 3.27108403,18.473967 C3.92839969,18.473967 4.46295286,19.0085202 4.46295286,19.6658358 L4.46295286,19.6658358 Z" id="Shape"></path>
                            <path d="M13.367405,1.00236169 C12.6963828,0.32776393 11.7351406,0 10.4288523,0 C10.0993006,0 9.83291791,0.266382685 9.83291791,0.595934419 L9.83291791,17.8780326 C9.83291791,17.9429894 9.85079595,18.0025829 9.86986585,18.0609844 C9.48072067,18.4852897 9.23698349,19.0454681 9.23698349,19.6658358 L9.23698349,32.776393 C9.23698349,34.0910244 10.3060898,35.1601307 11.6207212,35.1601307 C12.9353525,35.1601307 14.0044588,34.0910244 14.0044588,32.776393 L14.0044588,19.6658358 C14.0044588,18.9024438 13.6373632,18.2290379 13.0771849,17.792218 C14.5974136,15.8232507 14.6015851,12.9109192 14.6003933,8.67680514 L14.6039689,7.36217381 C14.6182713,4.51837476 14.6307859,2.27229794 13.367405,1.00236169 L13.367405,1.00236169 Z M12.81259,32.776393 C12.81259,33.4337087 12.2780368,33.9682619 11.6207212,33.9682619 C10.9634055,33.9682619 10.4288523,33.4337087 10.4288523,32.776393 L10.4288523,19.6658358 C10.4288523,19.0085202 10.9634055,18.473967 11.6207212,18.473967 C12.2780368,18.473967 12.81259,19.0085202 12.81259,19.6658358 L12.81259,32.776393 L12.81259,32.776393 Z M13.4121,7.35621447 L13.4085244,8.67740107 C13.4097163,12.8692038 13.4055448,15.675459 11.9240518,17.3130867 C11.8239348,17.2999762 11.7244138,17.2820981 11.6207212,17.2820981 C11.4139319,17.2820981 11.2166776,17.3166623 11.0247868,17.3667208 L11.0247868,1.22702897 C11.686274,1.30092484 12.1826873,1.5011588 12.5223699,1.84262922 C13.4359374,2.7615601 13.4252106,4.78892899 13.4121,7.35621447 L13.4121,7.35621447 Z" id="Shape"></path>
                        </g>
                    </g>
                </g>
            </g>
        </g>
    </g>
</svg>